<?xml version="1.0"?>
<svg xmlns="http://www.w3.org/2000/svg" xmlns:xlink="http://www.w3.org/1999/xlink" version="1.1" id="Layer_1" x="0px" y="0px" viewBox="0 0 512 512" style="enable-background:new 0 0 512 512;" xml:space="preserve" width="512px" height="512px" class=""><g><g>
	<g>
		<path d="M474.163,283.943h-44.492V117.758c0-9.611-7.792-17.403-17.403-17.403h-33.932V47.502    c0-20.864-16.973-37.837-37.837-37.837H170.809c-20.864,0-37.837,16.973-37.837,37.837v52.854H99.039    c-9.611,0-17.403,7.792-17.403,17.403v166.185H37.837C16.973,283.943,0,300.916,0,321.78v100.954    c0,20.863,16.973,37.837,37.837,37.837h43.799v24.362c0,9.611,7.792,17.403,17.403,17.403h313.23    c9.611,0,17.403-7.792,17.403-17.403v-24.362h44.492c20.864,0,37.837-16.974,37.837-37.837V321.78    C512,300.916,495.027,283.943,474.163,283.943z M297.711,194.324h3.769V70.773c0-9.611,7.792-17.403,17.403-17.403    c9.611,0,17.403,7.792,17.403,17.403v123.551h3.769c9.611,0,17.403,7.792,17.403,17.403c0,9.611-7.792,17.403-17.403,17.403    h-3.769v57.425c0,9.611-7.792,17.403-17.403,17.403s-17.403-7.792-17.403-17.403v-57.425h-3.769    c-9.611,0-17.403-7.792-17.403-17.403C280.309,202.115,288.1,194.324,297.711,194.324z M171.253,194.324h3.769V70.773    c0-9.611,7.792-17.403,17.403-17.403s17.403,7.792,17.403,17.403v123.551h3.769c9.611,0,17.403,7.792,17.403,17.403    c0,9.611-7.792,17.403-17.403,17.403h-3.769v57.425c0,9.611-7.792,17.403-17.403,17.403s-17.403-7.792-17.403-17.403v-57.425    h-3.769c-9.611,0-17.403-7.792-17.403-17.403C153.85,202.115,161.642,194.324,171.253,194.324z M360.934,424.583    c0,10.264-8.321,18.586-18.586,18.586H168.959c-10.264,0-18.586-8.321-18.586-18.586v-62.018c0-10.264,8.321-18.586,18.586-18.586    h173.389c10.264,0,18.586,8.321,18.586,18.586V424.583z" data-original="#000000" class="active-path" data-old_color="#F8F5F5" fill="#F9F9F9"/>
	</g>
</g></g> </svg>
