<?xml version='1.0' encoding='iso-8859-1'?>
<!DOCTYPE svg PUBLIC '-//W3C//DTD SVG 1.1//EN' 'http://www.w3.org/Graphics/SVG/1.1/DTD/svg11.dtd'>
<svg version="1.1" xmlns="http://www.w3.org/2000/svg" viewBox="0 0 512 512" xmlns:xlink="http://www.w3.org/1999/xlink" enable-background="new 0 0 512 512">
  <g>
    <path d="m499.215,310.423c-14.133-10.625-34.187-7.766-44.804,6.367-9.172,12.211-23.171,19.211-38.413,19.211h-16-16-255.996-16-16c-15.242,0-29.242-7-38.413-19.211-10.617-14.117-30.679-16.984-44.804-6.367-14.133,10.617-16.984,30.671-6.367,44.804 21.054,28.039 54.546,44.773 89.584,44.773h319.995c35.039,0 68.53-16.734 89.585-44.773 10.617-14.132 7.766-34.187-6.367-44.804z"/>
    <path d="m383.998,304.002v-79.999c0-41.273-19.304-81.671-50.382-105.42-7.211-5.515-16.437-7.719-25.375-6.023-8.93,1.688-16.719,7.094-21.429,14.867-3.852,6.367-15.672,12.812-30.812,12.812-15.14,0-26.96-6.445-30.812-12.812-4.711-7.773-12.5-13.18-21.429-14.867-8.945-1.695-18.164,0.508-25.375,6.023-31.078,23.75-50.382,64.147-50.382,105.42v79.999h255.996z"/>
  </g>
</svg>
